<svg width="24" height="25" viewBox="0 0 24 25" fill="none" xmlns="http://www.w3.org/2000/svg">
									<path d="M8.68475 24C5.11283 23.9794 2.1582 16.6879 2.1582 12.9745C2.1582 6.90873 6.70859 5.58077 8.46228 5.58077C9.25259 5.58077 10.0965 5.89112 10.8408 6.16577C11.3613 6.35734 11.8996 6.55511 12.199 6.55511C12.3782 6.55511 12.8005 6.38688 13.1734 6.23927C13.9685 5.92272 14.9579 5.5293 16.1101 5.5293C16.1122 5.5293 16.115 5.5293 16.117 5.5293C16.9773 5.5293 19.5859 5.71811 21.1542 8.0733L21.5216 8.62534L20.9929 9.0243C20.2376 9.5942 18.8594 10.6338 18.8594 12.6931C18.8594 15.132 20.4202 16.07 21.17 16.5211C21.501 16.7202 21.8436 16.9255 21.8436 17.3746C21.8436 17.6678 19.5035 23.9636 16.1053 23.9636C15.2738 23.9636 14.686 23.7137 14.1676 23.4933C13.643 23.2701 13.1905 23.0779 12.4427 23.0779C12.0637 23.0779 11.5844 23.2571 11.077 23.4473C10.3835 23.7061 9.59867 24 8.70809 24H8.68475Z" fill="black"/>
									<path d="M16.4698 0C16.5583 3.19106 14.2762 5.40488 11.9967 5.26603C11.6211 2.71945 14.2759 0 16.4698 0Z" fill="black"/>
								</svg>