<svg width="24" height="24" viewBox="0 0 24 24" fill="none" xmlns="http://www.w3.org/2000/svg">
									<path d="M23.7861 17.3664C23.7216 17.2584 23.3225 16.3913 21.4024 14.6092C19.3923 12.743 19.6623 13.0461 22.0835 9.81932C23.5581 7.85417 24.1476 6.65408 23.9631 6.14104C23.7876 5.65201 22.703 5.78102 22.703 5.78102L19.0967 5.80202C19.0967 5.80202 18.8297 5.76602 18.6302 5.88453C18.4367 6.00153 18.3122 6.27155 18.3122 6.27155C18.3122 6.27155 17.7406 7.79267 16.9786 9.08576C15.372 11.8145 14.7284 11.9585 14.4659 11.789C13.8553 11.3944 14.0084 10.2018 14.0084 9.35578C14.0084 6.71109 14.4089 5.6085 13.2268 5.32348C12.8338 5.22898 12.5458 5.16597 11.5422 5.15547C10.2551 5.14197 9.16451 5.15997 8.54796 5.46149C8.13693 5.66251 7.82041 6.11104 8.01392 6.13654C8.25244 6.16805 8.79248 6.28205 9.079 6.67208C9.44953 7.17462 9.43602 8.3057 9.43602 8.3057C9.43602 8.3057 9.64904 11.4184 8.93949 11.8055C8.45195 12.071 7.7844 11.5294 6.3518 9.05276C5.61825 7.78517 5.06321 6.38256 5.06321 6.38256C5.06321 6.38256 4.9567 6.12154 4.76618 5.98203C4.53517 5.81252 4.21114 5.75852 4.21114 5.75852L0.781892 5.77952C0.781892 5.77952 0.267354 5.79452 0.0783406 6.01804C-0.0896717 6.21755 0.0648396 6.62858 0.0648396 6.62858C0.0648396 6.62858 2.75004 12.9095 5.78926 16.0763C8.57796 18.979 11.7432 18.7885 11.7432 18.7885H13.1773C13.1773 18.7885 13.6108 18.7405 13.8313 18.502C14.0354 18.2829 14.0279 17.8719 14.0279 17.8719C14.0279 17.8719 13.9994 15.9473 14.8934 15.6637C15.774 15.3847 16.9051 17.5239 18.1037 18.3474C19.0097 18.97 19.6983 18.8335 19.6983 18.8335L22.904 18.7885C22.904 18.7885 24.5811 18.685 23.7861 17.3664Z" fill="#0077FF"/>
								</svg>